<svg width="122" height="72" viewBox="0 0 122 72" fill="none" xmlns="http://www.w3.org/2000/svg">
<path fill-rule="evenodd" clip-rule="evenodd" d="M1.38568 8.58301V33.2055H10.5172C10.5172 33.2055 16.815 33.7445 19.2704 30.0765C19.2704 30.0765 21.8696 27.0343 19.8079 22.6002C18.9325 21.4641 17.7282 20.6299 16.3615 20.2128C16.3615 20.2128 18.2351 19.0168 18.7616 17.8053C19.1359 17.0222 19.3802 16.1826 19.4849 15.3199C19.6097 14.4202 19.5171 13.5034 19.2151 12.6474C18.8921 11.8186 18.3672 11.0849 17.6887 10.5139C16.0274 9.04179 13.4636 8.66541 8.11705 8.55183C6.38056 8.51842 4.10212 8.50506 1.38568 8.58301ZM7.93873 12.4648C7.8966 12.4648 7.93873 17.0366 7.93873 17.0366L11.2357 16.979C11.2357 16.979 13.0737 16.7262 13.118 14.7618C13.1624 12.7974 11.6081 12.5824 11.7035 12.6178C10.4523 12.4984 9.19549 12.4473 7.93873 12.4648ZM7.89726 26.9851C7.89726 26.9851 7.93938 21.8191 7.89726 21.7769L12.0899 21.9144C12.0899 21.9144 14.194 21.9344 14.265 24.4242C14.3359 26.9141 11.2651 27.0715 11.2651 27.0715L7.89726 26.9851Z" fill="white"/>
<path d="M44.5879 17.0305L47.7097 15.0924C46.539 13.5 43.7365 10.0686 40.138 9.12151C39.6126 8.98276 39.045 8.88805 39.045 8.88805C35.7658 8.07535 33.0431 9.27569 32.409 9.50915C31.5931 9.81309 28.5777 11.0354 26.7109 13.7753C26.2775 14.4281 25.8993 15.1154 25.5801 15.8302C25.1237 16.8754 24.7832 17.9669 24.5647 19.0854C24.4924 19.3927 24.4376 19.7037 24.4006 20.0171C24.3429 20.5839 24.3429 21.155 24.4006 21.7218C24.4653 22.6402 24.622 23.5499 24.8684 24.4374C25.0616 25.1577 25.3229 25.8583 25.6489 26.5297C26.1171 27.4916 26.7219 28.3816 27.4448 29.1727C28.2375 30.0317 29.1588 30.7642 30.1763 31.3443C31.3204 32.011 32.5567 32.5074 33.8457 32.8177C35.1164 33.1579 36.4346 33.2888 37.7479 33.2054C39.0659 33.1084 40.3584 32.7943 41.5726 32.2759C42.6076 31.8739 43.5785 31.3249 44.4549 30.6461C45.1724 30.0704 45.8265 29.4207 46.406 28.708C47.0451 27.9376 47.6445 27.1357 48.2019 26.3051C48.3926 26.0342 48.632 25.6906 48.9047 25.2193C49.1855 24.7514 49.4209 24.258 49.6076 23.7458C49.703 23.4661 49.7808 23.1807 49.8404 22.8913C50.1012 21.8089 50.4406 20.7468 50.8558 19.7131C51.3222 18.5209 51.9527 17.3988 52.7293 16.3786C53.4721 15.4249 54.6383 13.9251 56.789 13.0441C58.1339 12.4867 59.5999 12.2797 61.048 12.4428C62.496 12.6058 63.8782 13.1335 65.0634 13.9757C66.0275 14.603 66.8509 15.421 67.4824 16.3786C67.9431 17.0683 68.2939 17.8246 68.5222 18.6207C68.7817 19.633 68.8568 20.6832 68.7439 21.7218C68.638 22.7721 68.3468 23.7957 67.8837 24.7457C67.4345 25.7801 66.7494 26.6966 65.8824 27.4228C65.0155 28.149 63.9905 28.6651 62.8884 28.9304C61.2096 29.4192 59.4286 29.4459 57.7357 29.0075C56.4403 28.6543 55.2405 28.0185 54.2237 27.1464C53.4683 26.4848 52.8344 25.6978 52.3502 24.8206L49.2329 26.8447C49.2639 26.8997 49.3504 27.0495 49.4657 27.2323C50.5121 28.7799 51.8355 30.1236 53.3701 31.1967C53.5918 31.3509 53.8379 31.5051 53.8379 31.5051C53.8379 31.5051 54.4743 31.9147 55.0086 32.2033C56.1152 32.7296 57.3019 33.0705 58.5206 33.212C59.793 33.3747 61.0827 33.3487 62.3474 33.1349C63.4852 32.9668 64.5903 32.6266 65.6244 32.1262C66.604 31.6483 67.5019 31.0202 68.285 30.2651C68.2961 30.2651 68.3271 30.1836 68.3648 30.188C68.4025 30.1924 68.4313 30.3113 68.4424 30.4215C68.4535 30.5316 68.4978 30.6725 68.52 30.8091C68.5592 31.0394 68.5852 31.2718 68.5976 31.5051C68.6176 31.5844 68.642 31.6901 68.6752 31.8156C68.7284 32.0138 68.7883 32.2231 68.8326 32.3596C68.9372 32.6794 69.0677 32.9902 69.2229 33.2891H73.9055L73.7503 33.0688C73.6151 32.8287 73.4843 32.5711 73.3601 32.2936C72.9257 31.3102 72.6618 30.261 72.5796 29.1903C72.5375 28.4767 72.491 27.3711 72.502 26.0121C72.502 24.7523 72.5619 24.3229 72.5796 23.2194C72.6085 21.3914 72.624 20.2681 72.4222 19.0348C72.1561 17.4133 71.5731 15.8593 70.7061 14.4603C69.7198 12.8766 68.382 11.5379 66.7951 10.5465C65.2018 9.5891 63.4178 8.98785 61.567 8.78454C59.8085 8.54287 58.0177 8.69794 56.3278 9.23824C54.8672 9.7324 53.5134 10.4952 52.3369 11.487C51.3703 12.2575 50.5047 13.1454 49.7606 14.1299C49.1262 14.9788 48.5773 15.8877 48.1221 16.8433C47.7318 17.6274 47.4392 18.385 46.8738 19.8673C46.0069 22.1336 46.1577 21.9728 45.7807 22.8142C45.2471 24.1111 44.5091 25.3155 43.5946 26.3822C42.9429 27.1789 42.1566 27.8571 41.271 28.3864C39.3151 29.4381 37.0475 29.7682 34.8701 29.318C33.5886 28.9936 32.3938 28.3953 31.369 27.5649C30.3443 26.7345 29.5143 25.692 28.9369 24.5101C28.4467 23.4975 28.1791 22.3928 28.152 21.2695C28.1248 20.1462 28.3388 19.03 28.7795 17.9952C29.2196 16.7628 29.9413 15.6485 30.888 14.74C31.8609 13.8307 33.0384 13.1654 34.3224 12.7996C35.2117 12.5587 36.1329 12.4547 37.054 12.4913C38.5312 12.5413 39.9752 12.9399 41.2666 13.6542C42.6618 14.4591 43.81 15.6264 44.5879 17.0305Z" fill="white"/>
<path fill-rule="evenodd" clip-rule="evenodd" d="M77.5165 33.2333V8.71212C79.5852 8.59216 81.3323 8.54329 82.6493 8.53884C85.995 8.48553 87.3253 8.60327 87.9904 8.67214C89.2919 8.80543 90.3495 8.9987 91.0656 9.1431C91.7131 9.31416 94.1032 10.0228 95.5 12.3399C96.5303 14.0493 96.4867 15.7499 96.4623 16.7011L96.4622 16.703C96.4552 18.2241 96.041 19.7155 95.2628 21.0216C94.5827 22.1407 93.6492 23.0837 92.5378 23.7741L98.0098 33.1889L90.5357 33.2333C88.9904 30.332 88.3008 28.8991 87.9616 28.1238C87.8599 27.8946 87.7451 27.6714 87.6304 27.4485C87.505 27.2049 87.3798 26.9615 87.2721 26.7109C87.2096 26.5663 87.1543 26.4329 87.1033 26.3095C86.8556 25.7109 86.7069 25.3517 86.3098 25.127C86.0769 25.0139 85.8234 24.9497 85.5649 24.9381C85.0187 24.873 84.4664 24.8797 83.9219 24.9581C83.9258 26.3648 83.8983 27.8013 83.8709 29.2364C83.8453 30.5785 83.8197 31.9193 83.8197 33.2333H77.5165ZM83.622 19.6152C83.6412 17.5981 83.6596 15.5795 83.6774 13.5594L87.5574 13.5749C87.9291 13.6064 88.2897 13.7171 88.6152 13.8995C88.9407 14.0819 89.2237 14.3318 89.4451 14.6325C89.6665 14.9332 89.8213 15.2778 89.8992 15.6432C89.977 16.0087 89.9761 16.3866 89.8965 16.7517C89.754 17.5978 89.3067 18.3621 88.6394 18.8999C88.2832 19.2086 87.8747 19.4508 87.4333 19.6152H83.622Z" fill="white"/>
<path fill-rule="evenodd" clip-rule="evenodd" d="M102.139 33.1661L102.049 8.70735C104.896 8.43097 107.765 8.46954 110.604 8.82238C113.509 9.18962 114.876 9.7095 116.009 10.3555C117.239 11.0268 118.325 11.947 119.203 13.0611C121.338 15.851 121.285 19.1283 121.259 20.7414L121.259 20.7487L121.259 20.7796C121.224 22.5774 121.13 27.4697 117.618 30.549C115.158 32.6984 112.047 33.0516 111.045 33.1653L111.037 33.1661C110.309 33.248 108.961 33.2391 106.297 33.2214C104.551 33.2104 103.111 33.1861 102.139 33.1661ZM107.512 28.1391C107.342 28.1391 107.512 13.9315 107.512 13.9315C108.215 13.8339 110.27 13.6432 112.106 14.9403C112.529 15.236 112.908 15.5906 113.23 15.9934C114.462 17.5652 114.408 19.4578 114.355 21.3168L114.355 21.3412C114.332 22.2853 114.221 23.2251 114.022 24.1482C112.834 28.4903 108.153 28.1809 107.568 28.1422C107.539 28.1403 107.52 28.1391 107.512 28.1391Z" fill="white"/>
<path d="M6.52303 66H1.91216V46.2411H6.52303V66ZM27.5851 46.2411V66H25.1983C24.8457 66 24.5474 65.9458 24.3033 65.8373C24.0682 65.7197 23.8332 65.5208 23.5981 65.2406L14.2814 53.4557C14.3176 53.8083 14.3402 54.1519 14.3492 54.4864C14.3673 54.8119 14.3763 55.1192 14.3763 55.4086V66H10.335V46.2411H12.749C12.9479 46.2411 13.1151 46.2501 13.2507 46.2682C13.3864 46.2863 13.5084 46.3224 13.6169 46.3767C13.7254 46.4219 13.8294 46.4897 13.9288 46.5801C14.0283 46.6705 14.1413 46.7926 14.2679 46.9462L23.6659 58.8125C23.6207 58.4327 23.589 58.0666 23.571 57.714C23.5529 57.3524 23.5438 57.0133 23.5438 56.6969V46.2411H27.5851ZM36.0296 49.767V54.7712H42.7832V58.3107H36.0296V66H31.4188V46.2411H44.1394V49.767H36.0296ZM51.3922 66H46.7813V46.2411H51.3922V66ZM72.4543 46.2411V66H70.0675C69.7149 66 69.4165 65.9458 69.1724 65.8373C68.9373 65.7197 68.7023 65.5208 68.4672 65.2406L59.1505 53.4557C59.1867 53.8083 59.2093 54.1519 59.2183 54.4864C59.2364 54.8119 59.2455 55.1192 59.2455 55.4086V66H55.2042V46.2411H57.6181C57.817 46.2411 57.9843 46.2501 58.1199 46.2682C58.2555 46.2863 58.3775 46.3224 58.486 46.3767C58.5945 46.4219 58.6985 46.4897 58.7979 46.5801C58.8974 46.6705 59.0104 46.7926 59.137 46.9462L68.535 58.8125C68.4898 58.4327 68.4582 58.0666 68.4401 57.714C68.422 57.3524 68.413 57.0133 68.413 56.6969V46.2411H72.4543ZM80.8988 66H76.2879V46.2411H80.8988V66ZM98.9096 49.8755H93.3494V66H88.7656V49.8755H83.2055V46.2411H98.9096V49.8755ZM110.705 58.487V66H106.121V58.487L98.9604 46.2411H103.002C103.4 46.2411 103.711 46.336 103.937 46.5258C104.173 46.7067 104.367 46.9417 104.521 47.231L107.314 52.9811C107.549 53.4331 107.762 53.858 107.952 54.2558C108.141 54.6446 108.309 55.0288 108.453 55.4086C108.589 55.0198 108.743 54.631 108.914 54.2423C109.095 53.8445 109.303 53.4241 109.538 52.9811L112.305 47.231C112.368 47.1135 112.445 46.996 112.535 46.8784C112.626 46.7609 112.73 46.6569 112.847 46.5665C112.974 46.4671 113.114 46.3902 113.268 46.336C113.43 46.2727 113.607 46.2411 113.797 46.2411H117.865L110.705 58.487Z" fill="white"/>
</svg>
